<?xml version="1.0" encoding="UTF-8"?>
<svg width="195px" height="63px" viewBox="0 0 195 63" version="1.1" xmlns="http://www.w3.org/2000/svg" xmlns:xlink="http://www.w3.org/1999/xlink">
    <!-- Generator: Sketch 41.2 (35397) - http://www.bohemiancoding.com/sketch -->
    <title>mop-logo</title>
    <desc>Created with Sketch.</desc>
    <defs>
        <polygon id="path-1" points="57.4815749 0.132362082 0 0.132362082 0 62.7171644 57.4815749 62.7171644 57.4815749 0.132362082"></polygon>
    </defs>
    <g id="Final" stroke="none" stroke-width="1" fill="none" fill-rule="evenodd">
        <g id="Home" transform="translate(-170.000000, -30.000000)">
            <g id="mop-logo" transform="translate(170.000000, 30.000000)">
                <g id="Group-3" transform="translate(0.000000, 0.175120)">
                    <mask id="mask-2" fill="white">
                        <use xlink:href="#path-1"></use>
                    </mask>
                    <g id="Clip-2"></g>
                    <path d="M46.7462215,25.3757537 L45.1141797,25.9560723 C44.6291291,26.128398 44.0965974,25.8750326 43.9243626,25.3906576 L43.34435,23.7568233 C43.1721151,23.2724483 43.4253469,22.7396357 43.9103976,22.56731 L45.5424394,21.9869914 C46.0265591,21.8146657 46.5590907,22.0680311 46.7313256,22.5524061 L47.3113381,24.1862404 C47.483573,24.6706154 47.2303412,25.203428 46.7462215,25.3757537 M44.5890961,28.3127432 L41.3063924,43.5491327 C41.1779145,44.1452866 40.6472449,44.6408396 40.0420953,44.5709778 C39.2656419,44.4815547 37.3710582,43.8621135 37.3710582,43.8621135 C36.5201248,43.6115426 36.0685901,43.1513863 36.0685901,42.2757853 L36.0685901,39.7421312 L29.9295805,43.9524681 C29.3877389,44.3250643 29.0525791,44.3250643 28.5116685,43.9524681 L23.0345994,39.7421312 L23.0345994,42.2757853 C23.0345994,43.1513863 21.8717812,43.5500642 20.9268169,43.8621135 C20.9268169,43.8621135 18.4838747,44.4815547 17.7111452,44.5709778 C17.1050646,44.6408396 16.4440551,44.1452866 16.3155772,43.5491327 L12.9677036,28.3127432 C12.7330917,27.2210363 13.8651869,26.3640651 14.8371502,26.914576 L19.6280728,30.4411989 C20.0135066,30.6591677 20.4752822,30.6656881 20.866302,30.4570342 L28.1411308,25.940237 C28.5209785,25.737172 28.9753062,25.737172 29.3560849,25.940237 L36.6346377,30.4570342 C37.0247265,30.6656881 37.4948811,30.6600991 37.8793839,30.4411989 L42.6879954,26.914576 C43.6590277,26.3640651 44.8246389,27.2210363 44.5890961,28.3127432 M12.334624,25.9607297 L10.7156162,25.3450145 C10.2352205,25.1615109 9.99316069,24.6240409 10.1756366,24.1424603 L10.7919581,22.5225984 C10.974434,22.0419493 11.5125516,21.7997618 11.9929473,21.9832654 L13.6119551,22.5989806 C14.0932818,22.7815528 14.3344106,23.3199543 14.1519347,23.8006033 L13.5356132,25.4204653 C13.3531373,25.9020458 12.8159507,26.1433019 12.334624,25.9607297 M26.1757912,20.4425802 L28.1085458,18.5097375 C28.4716355,18.1455247 29.0609581,18.1455247 29.4249789,18.5097375 L31.3577335,20.4425802 C31.7208232,20.806793 31.7208232,21.3964265 31.3577335,21.7606392 L29.4249789,23.6934819 C29.0609581,24.0576947 28.4716355,24.0576947 28.1085458,23.6934819 L26.1757912,21.7606392 C25.8127014,21.3964265 25.8127014,20.806793 26.1757912,20.4425802 M56.7488784,19.1804106 C56.4751646,16.9094369 55.2946575,14.847117 53.4754848,13.4619907 C50.258882,11.0112392 46.8625965,8.72629313 43.290352,6.6285766 C39.5542517,4.43398506 35.7166724,2.49648489 31.7990272,0.811418632 C29.6391087,-0.117277363 27.1831325,-0.0930586107 25.042765,0.880348927 C21.1670147,2.6417974 17.3601584,4.6640632 13.6445401,6.95832422 C10.2063595,9.08212249 6.93855186,11.379178 3.84484106,13.8299294 C2.08990731,15.2206447 0.957812119,17.2494309 0.697132304,19.4738301 C0.237218631,23.3963365 -0.000186199868,27.3849787 -0.000186199868,31.4276473 C-0.000186199868,35.5718484 0.250252622,39.6592285 0.733441278,43.6748839 C1.00622408,45.9458577 2.18673124,48.0091091 4.00590395,49.3942354 C7.22343766,51.8440553 10.6187922,54.1290015 14.1910367,56.226718 C17.953205,58.4362134 21.8019563,60.3709191 25.7121535,62.0438759 C27.869279,62.966983 30.3196692,62.9399698 32.4553817,61.9684252 C36.325546,60.2088397 40.1277473,58.1893684 43.8377796,55.8979018 C47.2759602,53.7741036 50.5437678,51.4770481 53.6374786,49.0253652 C55.3924124,47.6346499 56.5235766,45.6058637 56.7851874,43.3814644 C57.2451011,39.4598896 57.4815749,35.4712474 57.4815749,31.4276473 C57.4815749,27.2834462 57.2320671,23.1969975 56.7488784,19.1804106" id="Fill-1" fill="#EF1A24" mask="url(#mask-2)"></path>
                </g>
                <path d="M77.3215432,22.2125053 L77.3215432,27.4456187 L74.3777233,27.4456187 L74.3777233,22.1063153 C74.3572413,20.8562551 73.5947528,20.2004858 72.7484744,20.2004858 C71.8584391,20.2004858 71.0335737,20.7081481 71.0335737,22.2125053 L71.0335737,27.4456187 L68.0897538,27.4456187 L68.0897538,17.5522584 L71.0335737,17.5522584 L71.0335737,18.9923427 C71.4990733,17.9546623 72.5566886,17.3613029 73.6161658,17.3613029 C75.1830377,17.3613029 76.241584,17.9546623 76.7918046,19.0985326 C77.7451479,17.5522584 79.057857,17.3408101 79.7561065,17.3408101 C82.1068798,17.3408101 83.5676177,18.8442357 83.5676177,21.8315257 L83.5676177,27.4456187 L80.6452108,27.4456187 L80.6452108,22.1705882 C80.6452108,20.8786109 79.8836534,20.2004858 79.015031,20.2004858 C78.0831007,20.2004858 77.3215432,20.772421 77.3215432,22.2125053" id="Fill-4" fill="#111111"></path>
                <path d="M85.6463531,27.4455255 L88.56876,27.4455255 L88.56876,17.5521653 L85.6463531,17.5521653 L85.6463531,27.4455255 Z M87.108022,12.1709449 C88.1032603,12.1709449 88.9067128,12.9124113 88.9067128,13.8867503 C88.9067128,14.8610893 88.1032603,15.6249115 87.108022,15.6249115 C86.1127837,15.6249115 85.2655743,14.8610893 85.2655743,13.8867503 C85.2655743,12.9124113 86.1127837,12.1709449 87.108022,12.1709449 L87.108022,12.1709449 Z" id="Fill-6" fill="#111111"></path>
                <path d="M93.6939113,27.4455255 L90.7500914,27.4455255 L90.7500914,17.5521653 L93.6939113,17.5521653 L93.6939113,18.9922496 C94.222719,17.9964863 95.3873991,17.340717 96.5520793,17.340717 C98.7753057,17.340717 100.172736,18.7174599 100.172736,21.534287 L100.172736,27.4455255 L97.2298468,27.4455255 L97.2298468,22.170495 C97.2298468,20.8570935 96.5092533,20.2003927 95.5149461,20.2003927 C94.4778128,20.2003927 93.6939113,20.7089865 93.6939113,22.2124121 L93.6939113,27.4455255 Z" id="Fill-8" fill="#111111"></path>
                <path d="M102.250726,27.4455255 L105.173133,27.4455255 L105.173133,17.5521653 L102.250726,17.5521653 L102.250726,27.4455255 Z M103.711464,12.1709449 C104.706703,12.1709449 105.511086,12.9124113 105.511086,13.8867503 C105.511086,14.8610893 104.706703,15.6249115 103.711464,15.6249115 C102.716226,15.6249115 101.869017,14.8610893 101.869017,13.8867503 C101.869017,12.9124113 102.716226,12.1709449 103.711464,12.1709449 L103.711464,12.1709449 Z" id="Fill-9" fill="#111111"></path>
                <path d="M109.916575,23.3779861 C106.952273,22.5722469 106.93086,21.0688213 106.952273,20.1578236 C106.972755,18.696315 108.731413,17.3400649 110.805679,17.3400649 C112.774743,17.3400649 114.84994,18.2091455 114.871353,20.6245003 L112.096975,20.6245003 C112.075562,19.8821024 111.441552,19.7554197 110.975121,19.7554197 C110.34018,19.7554197 109.916575,20.0525652 109.937057,20.4968861 C109.95847,20.7940316 110.212633,21.0902455 110.805679,21.2383525 L112.478685,21.6826735 C114.871353,22.3403057 115.167411,23.928497 115.167411,24.5637735 C115.167411,26.66149 112.965598,27.6572533 110.8904,27.6572533 C108.879442,27.6572533 106.782831,26.4500417 106.761418,24.2461352 L109.514383,24.2461352 C109.534865,24.8180704 110.170738,25.3900055 110.975121,25.3900055 C111.631476,25.3695127 112.181696,25.0732988 112.181696,24.5637735 C112.181696,24.1399453 111.927533,23.9080042 111.207871,23.7170487 L109.916575,23.3779861 Z" id="Fill-10" fill="#111111"></path>
                <polygon id="Fill-11" fill="#111111" points="122.644639 17.5523516 122.644639 19.8820093 120.569442 19.8820093 120.569442 27.4457118 117.647966 27.4457118 117.647966 19.8820093 115.848344 19.8820093 115.848344 17.5523516 117.647966 17.5523516 117.647966 13.7593224 120.569442 13.7593224 120.569442 17.5523516"></polygon>
                <path d="M126.659946,27.4455255 L123.716126,27.4455255 L123.716126,17.5521653 L126.659946,17.5521653 L126.659946,19.9460958 C127.168272,18.1026762 128.438155,17.340717 129.454806,17.340717 C130.153056,17.340717 130.681863,17.4673997 131.148294,17.7002723 L130.619486,20.3484997 C130.089748,20.0942028 129.581422,20.0522857 129.114991,20.0522857 C127.421504,20.0522857 126.659946,21.3861801 126.659946,23.9924904 L126.659946,27.4455255 Z" id="Fill-12" fill="#111111"></path>
                <polygon id="Fill-13" fill="#111111" points="135.935679 32.2969142 132.823348 32.2969142 135.195534 26.4294557 131.384023 17.5523516 134.517767 17.5523516 136.698167 23.1664446 138.900912 17.5523516 142.033724 17.5523516"></polygon>
                <path d="M153.522908,22.466709 C153.522908,21.1328147 152.506257,20.221817 151.278269,20.221817 C150.071693,20.221817 149.055042,21.1328147 149.055042,22.466709 C149.055042,23.8443834 150.071693,24.7339568 151.278269,24.7339568 C152.506257,24.7339568 153.522908,23.8443834 153.522908,22.466709 M146.154048,22.466709 C146.154048,19.3527364 148.483409,17.340717 151.278269,17.340717 C154.073129,17.340717 156.423902,19.3527364 156.423902,22.466709 C156.423902,25.5816131 154.073129,27.6150568 151.278269,27.6150568 C148.483409,27.6150568 146.154048,25.5816131 146.154048,22.466709" id="Fill-14" fill="#111111"></path>
                <path d="M164.450792,14.9888898 L163.370833,14.9888898 C162.355113,14.9888898 161.8682,15.708932 161.8682,16.8742265 L161.8682,17.5523516 L163.858676,17.5523516 L163.858676,19.8829407 L161.8682,19.8829407 L161.8682,27.4457118 L158.903898,27.4457118 L158.903898,19.8829407 L157.040968,19.8829407 L157.040968,17.5523516 L158.903898,17.5523516 L158.903898,16.8742265 C158.903898,13.8450195 160.534078,12.1711312 163.370833,12.1711312 L164.450792,12.1711312 L164.450792,14.9888898 Z" id="Fill-15" fill="#111111"></path>
                <path d="M73.3620961,43.5293851 C74.6114972,43.5293851 75.6486305,42.5969632 75.6486305,41.1773717 C75.6486305,39.7158632 74.6114972,38.7843727 73.3620961,38.7843727 C72.133177,38.7843727 71.0755617,39.7577802 71.0755617,41.1773717 C71.0755617,42.661236 72.155521,43.5293851 73.3620961,43.5293851 L73.3620961,43.5293851 Z M71.0113228,36.1994867 L71.0113228,37.4281226 C71.4991664,36.5180564 72.6843286,35.9880383 73.9123167,35.9880383 C76.4539449,35.9880383 78.6976533,38.0000577 78.6976533,41.1140304 C78.6976533,44.2922758 76.4539449,46.3052267 73.9123167,46.3052267 C72.6843286,46.3052267 71.4991664,45.7966329 71.0113228,44.8856353 L71.0113228,50.9440492 L68.0898469,50.9440492 L68.0898469,36.1994867 L71.0113228,36.1994867 Z" id="Fill-16" fill="#111111"></path>
                <path d="M83.2533124,46.0928469 L80.3094925,46.0928469 L80.3094925,36.1994867 L83.2533124,36.1994867 L83.2533124,38.5934172 C83.761638,36.7499975 85.0315211,35.9880383 86.0481724,35.9880383 C86.7473529,35.9880383 87.2752295,36.114721 87.7416602,36.3475936 L87.2128526,38.995821 C86.6831139,38.7415241 86.1747883,38.6996071 85.7083576,38.6996071 C84.0148698,38.6996071 83.2533124,40.0335014 83.2533124,42.6398117 L83.2533124,46.0928469 Z" id="Fill-17" fill="#111111"></path>
                <path d="M95.3452249,41.1140304 C95.3452249,39.780136 94.3285736,38.8691383 93.1005855,38.8691383 C91.8940103,38.8691383 90.877359,39.780136 90.877359,41.1140304 C90.877359,42.4917048 91.8940103,43.3812781 93.1005855,43.3812781 C94.3285736,43.3812781 95.3452249,42.4917048 95.3452249,41.1140304 M87.9763651,41.1140304 C87.9763651,38.0000577 90.3057255,35.9880383 93.1005855,35.9880383 C95.8954455,35.9880383 98.2462188,38.0000577 98.2462188,41.1140304 C98.2462188,44.2289345 95.8954455,46.2623782 93.1005855,46.2623782 C90.3057255,46.2623782 87.9763651,44.2289345 87.9763651,41.1140304" id="Fill-18" fill="#111111"></path>
                <path d="M104.685476,38.783907 C103.436075,38.783907 102.313289,39.7163289 102.313289,41.1135646 C102.313289,42.5974289 103.436075,43.5289194 104.685476,43.5289194 C105.892051,43.5289194 107.078144,42.5555119 107.078144,41.1135646 C107.078144,39.6315633 105.913464,38.783907 104.685476,38.783907 M104.4099,48.3810532 C106.654539,48.3810532 107.268068,46.8347791 107.141452,44.8646767 C106.675952,45.7747429 105.405138,46.304761 104.17715,46.304761 C101.636453,46.304761 99.2437846,44.2927416 99.2437846,41.1778374 C99.2437846,37.999592 101.636453,35.9875726 104.17715,35.9875726 C105.405138,35.9875726 106.654539,36.5175906 107.141452,37.4276568 L107.141452,36.1999524 L109.99962,36.1999524 L109.99962,44.7156382 C109.99962,48.9744127 107.925353,51.0283491 104.4099,51.0283491 C102.229499,51.0283491 100.36657,49.8006447 99.5407734,47.9572251 C100.280918,47.5967383 101.170022,47.1524173 101.911098,46.7919305 C102.250912,47.7029282 103.414662,48.3810532 104.4099,48.3810532" id="Fill-19" fill="#111111"></path>
                <path d="M115.126913,46.0928469 L112.183093,46.0928469 L112.183093,36.1994867 L115.126913,36.1994867 L115.126913,38.5934172 C115.635238,36.7499975 116.905121,35.9880383 117.921773,35.9880383 C118.620022,35.9880383 119.14883,36.114721 119.61526,36.3475936 L119.086453,38.995821 C118.556714,38.7415241 118.048389,38.6996071 117.581958,38.6996071 C115.88847,38.6996071 115.126913,40.0335014 115.126913,42.6398117 L115.126913,46.0928469 Z" id="Fill-20" fill="#111111"></path>
                <path d="M125.376377,43.4871886 C126.582953,43.4871886 127.769046,42.6190395 127.769046,41.1351752 C127.769046,39.6531739 126.582953,38.7840932 125.376377,38.7840932 C124.148389,38.7840932 122.898988,39.7155837 122.898988,41.1351752 C122.898988,42.5547667 124.148389,43.4871886 125.376377,43.4871886 L125.376377,43.4871886 Z M127.769046,44.9701214 C127.134104,45.9230362 125.651953,46.283523 124.889465,46.283523 C122.370181,46.283523 119.849965,44.3134207 119.849965,41.1351752 C119.849965,37.9578612 122.370181,35.9877589 124.889465,35.9877589 C125.524406,35.9877589 127.006557,36.2001387 127.769046,37.3011604 L127.769046,36.2001387 L130.690522,36.2001387 L130.690522,46.0925674 L127.769046,46.0925674 L127.769046,44.9701214 Z" id="Fill-21" fill="#111111"></path>
                <path d="M142.106994,40.8599198 L142.106994,46.0930332 L139.163174,46.0930332 L139.163174,40.7537298 C139.142692,39.5036696 138.380204,38.8479003 137.533925,38.8479003 C136.64389,38.8479003 135.819025,39.3555627 135.819025,40.8599198 L135.819025,46.0930332 L132.875205,46.0930332 L132.875205,36.1996729 L135.819025,36.1996729 L135.819025,37.6397572 C136.284524,36.6020768 137.342139,36.0087174 138.401617,36.0087174 C139.968489,36.0087174 141.027035,36.6020768 141.577255,37.7459471 C142.530599,36.1996729 143.843308,35.9882246 144.541557,35.9882246 C146.892331,35.9882246 148.353069,37.4916502 148.353069,40.4789402 L148.353069,46.0930332 L145.430662,46.0930332 L145.430662,40.8180027 C145.430662,39.5260254 144.669104,38.8479003 143.800482,38.8479003 C142.868552,38.8479003 142.106994,39.4198355 142.106994,40.8599198" id="Fill-22" fill="#111111"></path>
                <path d="M159.664059,40.8599198 L159.664059,46.0930332 L156.720239,46.0930332 L156.720239,40.7537298 C156.699757,39.5036696 155.937269,38.8479003 155.09099,38.8479003 C154.200955,38.8479003 153.376089,39.3555627 153.376089,40.8599198 L153.376089,46.0930332 L150.432269,46.0930332 L150.432269,36.1996729 L153.376089,36.1996729 L153.376089,37.6397572 C153.841589,36.6020768 154.899204,36.0087174 155.958682,36.0087174 C157.525553,36.0087174 158.5841,36.6020768 159.13432,37.7459471 C160.087664,36.1996729 161.400373,35.9882246 162.098622,35.9882246 C164.449396,35.9882246 165.910133,37.4916502 165.910133,40.4789402 L165.910133,46.0930332 L162.987727,46.0930332 L162.987727,40.8180027 C162.987727,39.5260254 162.226169,38.8479003 161.357547,38.8479003 C160.425616,38.8479003 159.664059,39.4198355 159.664059,40.8599198" id="Fill-23" fill="#111111"></path>
                <path d="M167.988589,46.0930332 L170.910996,46.0930332 L170.910996,36.1996729 L167.988589,36.1996729 L167.988589,46.0930332 Z M169.450258,30.8184525 C170.445497,30.8184525 171.24988,31.5599189 171.24988,32.534258 C171.24988,33.508597 170.445497,34.2714877 169.450258,34.2714877 C168.45502,34.2714877 167.607811,33.508597 167.607811,32.534258 C167.607811,31.5599189 168.45502,30.8184525 169.450258,30.8184525 L169.450258,30.8184525 Z" id="Fill-24" fill="#111111"></path>
                <path d="M176.037265,46.0928469 L173.093445,46.0928469 L173.093445,36.1994867 L176.037265,36.1994867 L176.037265,37.6395709 C176.566073,36.6438076 177.730753,35.9880383 178.895433,35.9880383 C181.118659,35.9880383 182.516089,37.3647812 182.516089,40.1816084 L182.516089,46.0928469 L179.5732,46.0928469 L179.5732,40.8178164 C179.5732,39.5044148 178.852607,38.847714 177.8583,38.847714 C176.821166,38.847714 176.037265,39.3563078 176.037265,40.8597335 L176.037265,46.0928469 Z" id="Fill-25" fill="#111111"></path>
                <path d="M189.442073,38.783907 C188.192672,38.783907 187.069886,39.7163289 187.069886,41.1135646 C187.069886,42.5974289 188.192672,43.5289194 189.442073,43.5289194 C190.648648,43.5289194 191.834741,42.5555119 191.834741,41.1135646 C191.834741,39.6315633 190.670061,38.783907 189.442073,38.783907 M189.166497,48.3810532 C191.411136,48.3810532 192.024665,46.8347791 191.898049,44.8646767 C191.432549,45.7747429 190.161735,46.304761 188.933747,46.304761 C186.39305,46.304761 184.000382,44.2927416 184.000382,41.1778374 C184.000382,37.999592 186.39305,35.9875726 188.933747,35.9875726 C190.161735,35.9875726 191.411136,36.5175906 191.898049,37.4276568 L191.898049,36.1999524 L194.756217,36.1999524 L194.756217,44.7156382 C194.756217,48.9744127 192.68195,51.0283491 189.166497,51.0283491 C186.986096,51.0283491 185.123167,49.8006447 184.29737,47.9572251 C185.037515,47.5967383 185.926619,47.1524173 186.667695,46.7919305 C187.007509,47.7029282 188.171259,48.3810532 189.166497,48.3810532" id="Fill-26" fill="#111111"></path>
            </g>
        </g>
    </g>
</svg>